<svg width="24" height="24" viewBox="0 0 24 24" fill="none" xmlns="http://www.w3.org/2000/svg">
<path d="M8 2.5H16" stroke="#333333" stroke-width="1.5" stroke-linecap="round" stroke-linejoin="round"/>
<path d="M3.19995 8.41162C3.19995 7.00002 4.19995 6.41162 5.39995 6.41162H18.5999C19.7999 6.41162 20.7999 7.00002 20.7999 8.41162C20.7999 9.82322 19.7999 10.4116 18.5999 10.4116H5.39995C4.19995 10.4116 3.19995 9.82322 3.19995 8.41162Z" stroke="#333333" stroke-width="1.5" stroke-linecap="round" stroke-linejoin="round"/>
<path d="M10.82 10.4116V17.9116C10.82 19.6416 10.16 20.4916 8.01 20.4916H5.99C3.84 20.4916 3.18 19.6416 3.18 17.9116V10.4116H10.82Z" stroke="#333333" stroke-width="1.5" stroke-linecap="round" stroke-linejoin="round"/>
<path d="M20.8199 10.4116V17.9116C20.8199 19.6416 20.1599 20.4916 18.0099 20.4916H15.9899C13.8399 20.4916 13.1799 19.6416 13.1799 17.9116V10.4116H20.8199Z" stroke="#333333" stroke-width="1.5" stroke-linecap="round" stroke-linejoin="round"/>
</svg> 