<svg width="40" height="40" viewBox="0 0 40 40" fill="none" xmlns="http://www.w3.org/2000/svg">
<rect width="40" height="40" rx="20" fill="black"/>
<path d="M14 26.4V13.6C14 13.2686 14.2686 13 14.6 13H17.4C17.7314 13 18 13.2686 18 13.6V26.4C18 26.7314 17.7314 27 17.4 27H14.6C14.2686 27 14 26.7314 14 26.4Z" fill="white" stroke="white" stroke-width="1.5"/>
<path d="M22 26.4V13.6C22 13.2686 22.2686 13 22.6 13H25.4C25.7314 13 26 13.2686 26 13.6V26.4C26 26.7314 25.7314 27 25.4 27H22.6C22.2686 27 22 26.7314 22 26.4Z" fill="white" stroke="white" stroke-width="1.5"/>
</svg>
